<?xml version="1.0" encoding="UTF-8" standalone="no"?>
<svg
   width="78"
   height="78"
   viewBox="0 0 78 78"
   fill="none"
   version="1.1"
   id="svg4"
   sodipodi:docname="player-hands-ghoul-fire.svg"
   inkscape:version="1.4.3 (0d15f75, 2025-12-25)"
   xml:space="preserve"
   inkscape:export-filename="player-hands-toxic-fire.svg"
   inkscape:export-xdpi="96"
   inkscape:export-ydpi="96"
   xmlns:inkscape="http://www.inkscape.org/namespaces/inkscape"
   xmlns:sodipodi="http://sodipodi.sourceforge.net/DTD/sodipodi-0.dtd"
   xmlns:xlink="http://www.w3.org/1999/xlink"
   xmlns="http://www.w3.org/2000/svg"
   xmlns:svg="http://www.w3.org/2000/svg"><sodipodi:namedview
     id="namedview4"
     pagecolor="#ffffff"
     bordercolor="#000000"
     borderopacity="0.25"
     inkscape:showpageshadow="2"
     inkscape:pageopacity="0.0"
     inkscape:pagecheckerboard="0"
     inkscape:deskcolor="#d1d1d1"
     inkscape:zoom="1.7519024"
     inkscape:cx="47.662473"
     inkscape:cy="75.061259"
     inkscape:window-width="1363"
     inkscape:window-height="629"
     inkscape:window-x="0"
     inkscape:window-y="33"
     inkscape:window-maximized="0"
     inkscape:current-layer="svg4"
     showguides="true" /><mask
     id="mask0"
     mask-type="alpha"
     maskUnits="userSpaceOnUse"
     x="1"
     y="0"
     width="77"
     height="78"><rect
       width="77"
       height="76"
       transform="matrix(-4.31437e-08 -1 -1 4.42865e-08 77.3008 77.7344)"
       fill="#C4C4C4"
       id="rect1" /></mask><defs
     id="defs4"><linearGradient
       id="linearGradient1"
       inkscape:collect="always"><stop
         style="stop-color:#002aff;stop-opacity:1;"
         offset="0"
         id="stop1" /><stop
         style="stop-color:#1cf3fd;stop-opacity:1"
         offset="1"
         id="stop2" /></linearGradient><linearGradient
       id="paint0_linear"
       x1="39.301"
       y1="68.3066"
       x2="39.301"
       y2="6.35754"
       gradientUnits="userSpaceOnUse"><stop
         offset="0.135417"
         stop-color="#1AF1FF"
         id="stop3" /><stop
         offset="1"
         stop-color="#1A9FFF"
         stop-opacity="0"
         id="stop4" /></linearGradient><mask
       id="mask0-0"
       mask-type="alpha"
       maskUnits="userSpaceOnUse"
       x="0"
       y="0"
       width="77"
       height="77"><rect
         x="0.56481898"
         y="76.690598"
         width="76"
         height="76"
         transform="rotate(-90,0.564819,76.6906)"
         fill="#c4c4c4"
         id="rect1-9" /></mask><linearGradient
       id="paint0_linear-4"
       x1="38.5648"
       y1="67.385101"
       x2="38.5648"
       y2="6.24055"
       gradientUnits="userSpaceOnUse"
       gradientTransform="rotate(89.515787,-19.526918,10.694735)"><stop
         offset="0.135417"
         stop-color="#FFCD1A"
         id="stop3-8"
         style="stop-color:#19f5ff;stop-opacity:1" /><stop
         offset="1"
         stop-color="#FF831A"
         stop-opacity="0"
         id="stop4-8" /></linearGradient><linearGradient
       inkscape:collect="always"
       xlink:href="#linearGradient1"
       id="linearGradient2"
       x1="38.564758"
       y1="8.679141"
       x2="38.189465"
       y2="53.085575"
       gradientUnits="userSpaceOnUse"
       gradientTransform="rotate(89.515787,-7.0644843,89.361717)" /></defs><g
     id="g5"
     transform="translate(-5.0256753,-95.502088)"><path
       d="m 46.655652,104.6381 c -18.359873,1.39421 -32.289686,20.04105 -35.069957,32.19678 18.48964,-0.15626 14.675602,24.89387 35.573862,27.42765 20.898359,2.53378 29.69118,-15.73888 29.271883,-30.06175 -0.419287,-14.32277 -6.825897,-31.30543 -29.775788,-29.56268 z"
       fill="#ff0000"
       id="path1"
       style="fill:url(#linearGradient2)" /><path
       fill-rule="evenodd"
       clip-rule="evenodd"
       d="m 6.0556947,142.43152 6.8919543,-0.0583 c 3.085189,-0.0261 4.934797,0.93733 6.490089,2.39704 1.839858,1.72671 3.316858,4.16992 5.374405,7.63375 l 0.09059,0.15244 c 3.860067,6.49971 9.266189,15.60265 22.257334,17.20972 12.197187,1.50888 21.330485,-3.26318 27.140049,-10.78105 5.600245,-7.24708 7.916176,-16.73939 7.679101,-24.94708 C 81.755166,126.2816 79.946589,117.10976 74.512681,109.98713 68.812606,102.5156 59.740819,98.106351 46.897542,99.098145 36.144476,99.928519 27.053152,105.85694 20.449626,112.83942 13.874248,119.79213 9.2110205,128.36375 7.5912912,135.5852 Z M 28.294111,120.5433 c 5.4156,-5.72637 12.16608,-9.81597 19.429899,-10.37687 9.677729,-0.74742 15.011373,2.46562 18.189795,6.63181 3.44458,4.51505 4.98771,10.99654 5.177409,17.56287 0.176586,6.11523 -1.613471,12.92 -5.349743,17.75505 -3.527054,4.56417 -8.960792,7.6592 -17.272078,6.631 -7.415518,-0.91736 -10.411758,-5.477 -14.339175,-12.08885 -0.08562,-0.14408 -0.172157,-0.28995 -0.259608,-0.43762 -1.793223,-3.02435 -4.000868,-6.74773 -7.0549,-9.61402 -1.893385,-1.77697 -4.081284,-3.21123 -6.64385,-4.143 1.780528,-3.87359 4.53706,-8.12944 8.122251,-11.92037 z"
       fill="#330000"
       id="path3"
       style="fill:#021933;fill-opacity:1" /></g></svg>
