<?xml version="1.0" encoding="UTF-8" standalone="no"?>
<svg
   width="78"
   height="78"
   viewBox="0 0 78 78"
   fill="none"
   version="1.1"
   id="svg5"
   sodipodi:docname="player-hands-green-tea-rex.svg"
   inkscape:version="1.4.2 (f4327f4, 2025-05-13)"
   xmlns:inkscape="http://www.inkscape.org/namespaces/inkscape"
   xmlns:sodipodi="http://sodipodi.sourceforge.net/DTD/sodipodi-0.dtd"
   xmlns="http://www.w3.org/2000/svg"
   xmlns:svg="http://www.w3.org/2000/svg">
  <defs
     id="defs5" />
  <sodipodi:namedview
     id="namedview5"
     pagecolor="#ffffff"
     bordercolor="#000000"
     borderopacity="0.25"
     inkscape:showpageshadow="2"
     inkscape:pageopacity="0.0"
     inkscape:pagecheckerboard="0"
     inkscape:deskcolor="#d1d1d1"
     inkscape:zoom="9.9102564"
     inkscape:cx="51.663648"
     inkscape:cy="39.90815"
     inkscape:window-width="1920"
     inkscape:window-height="991"
     inkscape:window-x="-9"
     inkscape:window-y="-9"
     inkscape:window-maximized="1"
     inkscape:current-layer="svg5" />
  <path
     d="M 39.213637,7.7298003 C 22.103186,7.1346116 7.7471787,20.522851 7.1484922,37.633181 6.5499058,54.743514 19.93542,69.096725 37.045872,69.691913 54.156423,70.287106 68.51245,56.898887 69.111056,39.788554 69.709663,22.678222 56.324188,8.3249925 39.213637,7.7298003 Z"
     fill="#12827a"
     id="path1" />
  <path
     fill-rule="evenodd"
     clip-rule="evenodd"
     d="M 37.729983,64.473942 C 51.670952,64.958879 63.369757,54.050084 63.857601,40.106115 64.345448,26.162046 53.437627,14.466877 39.496659,13.981939 25.55569,13.497 13.856884,24.405797 13.369037,38.349866 12.881193,52.293835 23.789015,63.989004 37.729983,64.473942 Z M 75.091246,40.496878 C 74.386419,60.641852 57.484299,76.406494 37.336985,75.705669 17.189771,75.004846 1.4305843,58.104077 2.1353317,37.9591 2.8401821,17.814027 19.742339,2.0494655 39.889554,2.7502882 60.036868,3.4511142 75.796087,20.351805 75.091246,40.496878 Z"
     fill="#041a18"
     id="path2" />
  <path
     d="m 68.768499,40.95355 c 0.415862,-0.148733 0.448628,-0.724242 0.05236,-0.919336 L 52.606169,32.052701 c -0.948559,-0.434738 -1.969875,0.356235 -1.995429,1.545365 l -0.248296,11.547748 c -0.02556,1.189131 0.959995,2.06202 1.925574,1.705472 z"
     fill="#fff7e7"
     id="path3" />
  <path
     d="m 59.011759,10.53574 c 0.141075,-0.172209 4.49e-4,-0.427153 -0.22075,-0.402258 -7.549507,0.849853 -11.649719,1.705119 -16.926376,5.35739 -1.029394,0.522729 -1.148296,1.915837 -0.232367,2.721966 l 5.528042,7.657306 c 0.916033,0.806032 2.316601,0.540761 2.736472,-0.518283 -0.128259,-5.943451 4.405786,-9.064615 9.114979,-14.816121 z"
     fill="#fff7e7"
     id="path4" />
  <path
     d="m 56.977721,69.010113 c 0.128766,0.181586 -0.02923,0.426142 -0.248164,0.385906 -7.472208,-1.372394 -11.503081,-2.510411 -16.513199,-6.520607 -0.990588,-0.592895 -1.012397,-1.990999 -0.04267,-2.731534 l 6.046753,-7.254576 c 0.96983,-0.740532 2.348581,-0.378582 2.693845,0.707173 -0.540932,5.920073 3.765273,9.348847 8.063434,15.413634 z"
     fill="#fff7e7"
     id="path5" />
</svg>
