<?xml version="1.0" encoding="UTF-8" standalone="no"?>
<svg
   width="149"
   height="149"
   viewBox="0 0 149 149"
   fill="none"
   version="1.1"
   id="svg5"
   sodipodi:docname="player-back-rsrv-tag.svg"
   inkscape:version="1.4.3 (0d15f75042, 2025-12-25)"
   xmlns:inkscape="http://www.inkscape.org/namespaces/inkscape"
   xmlns:sodipodi="http://sodipodi.sourceforge.net/DTD/sodipodi-0.dtd"
   xmlns="http://www.w3.org/2000/svg"
   xmlns:svg="http://www.w3.org/2000/svg">
  <sodipodi:namedview
     id="namedview5"
     pagecolor="#ffffff"
     bordercolor="#000000"
     borderopacity="0.25"
     inkscape:showpageshadow="2"
     inkscape:pageopacity="0.0"
     inkscape:pagecheckerboard="0"
     inkscape:deskcolor="#d1d1d1"
     inkscape:zoom="1.9243745"
     inkscape:cx="37.15493"
     inkscape:cy="64.696347"
     inkscape:window-width="1920"
     inkscape:window-height="1017"
     inkscape:window-x="0"
     inkscape:window-y="0"
     inkscape:window-maximized="1"
     inkscape:current-layer="svg5" />
  <path
     d="M140.913 78.6427C143.128 41.9827 115.205 10.4659 78.5453 8.2481C41.8854 6.03028 10.3708 33.9512 8.1556 70.6113C5.94035 107.271 33.8633 138.788 70.5232 141.006C107.183 143.224 138.698 115.303 140.913 78.6427Z"
     fill="#011919"
     id="path1" />
  <path
     d="M132.925 78.1581C134.873 45.911 110.311 18.188 78.0643 16.2371C45.8173 14.2863 18.0962 38.8463 16.1476 71.0935C14.199 103.341 38.7608 131.064 71.0078 133.015C103.255 134.965 130.976 110.405 132.925 78.1581Z"
     stroke="url(#paint0_linear)"
     stroke-width="5"
     id="path2"
     style="fill:#282424;fill-opacity:1" />
  <path
     fill-rule="evenodd"
     clip-rule="evenodd"
     d="M13.5549 74.622C13.5549 108.308 40.8603 135.612 74.5352 135.615C108.21 135.617 135.515 108.318 135.515 74.6322C135.515 40.9461 108.21 13.6425 74.5352 13.6397C40.8603 13.6368 13.5549 40.9359 13.5549 74.622ZM74.5352 146.627C34.767 146.624 2.53515 114.382 2.53515 74.6211C2.53515 34.8603 34.767 2.62378 74.5351 2.6271C114.303 2.63042 146.535 34.8723 146.535 74.6331C146.535 114.394 114.303 146.63 74.5352 146.627Z"
     fill="#002130"
     id="path3" />
  <defs
     id="defs5">
    <linearGradient
       id="paint0_linear"
       x1="29.0403"
       y1="31.8037"
       x2="119.699"
       y2="106.406"
       gradientUnits="userSpaceOnUse">
      <stop
         stop-color="#FAA70E"
         id="stop3"
         offset="0"
         style="stop-color:#00a3ee;stop-opacity:1;" />
      <stop
         offset="0.44791701"
         stop-color="#FFD17B"
         id="stop4"
         style="stop-color:#00cae0;stop-opacity:1;" />
      <stop
         offset="1"
         stop-color="#FCB93D"
         id="stop5"
         style="stop-color:#009be4;stop-opacity:1;" />
    </linearGradient>
  </defs>
</svg>
