<?xml version="1.0" encoding="UTF-8" standalone="no"?>
<svg
   style="isolation:isolate"
   width="128"
   height="128"
   version="1.1"
   id="svg5"
   xml:space="preserve"
   sodipodi:docname="loot-throwable-mine.svg"
   inkscape:version="1.4.3 (0d15f75, 2025-12-25)"
   xmlns:inkscape="http://www.inkscape.org/namespaces/inkscape"
   xmlns:sodipodi="http://sodipodi.sourceforge.net/DTD/sodipodi-0.dtd"
   xmlns="http://www.w3.org/2000/svg"
   xmlns:svg="http://www.w3.org/2000/svg"><sodipodi:namedview
     id="namedview1"
     pagecolor="#ffffff"
     bordercolor="#000000"
     borderopacity="0.25"
     inkscape:showpageshadow="2"
     inkscape:pageopacity="0.0"
     inkscape:pagecheckerboard="0"
     inkscape:deskcolor="#d1d1d1"
     inkscape:zoom="1.6117063"
     inkscape:cx="25.438878"
     inkscape:cy="212.5077"
     inkscape:window-width="1470"
     inkscape:window-height="895"
     inkscape:window-x="0"
     inkscape:window-y="33"
     inkscape:window-maximized="0"
     inkscape:current-layer="g6" /><defs
     id="defs5" /><g
     id="g6"
     transform="matrix(-3.4626972,0,0,-3.4626972,674.51032,1483.1406)"
     style="stroke-width:0.999163"><circle
       style="fill:#a3a3a3;fill-opacity:1;fill-rule:evenodd;stroke:#323232;stroke-width:0.808618;stroke-linejoin:miter;stroke-miterlimit:2;stroke-dasharray:none;stroke-opacity:1;paint-order:normal"
       id="path11"
       cx="-176.31097"
       cy="-409.8302"
       r="12.767648"
       transform="scale(-1)" /><circle
       style="fill:#ffffff;fill-opacity:1;fill-rule:evenodd;stroke:#323232;stroke-width:0.808618;stroke-linejoin:miter;stroke-miterlimit:2;stroke-dasharray:none;stroke-opacity:1;paint-order:normal"
       id="path12"
       cx="-176.31097"
       cy="-409.8302"
       transform="scale(-1)"
       r="7.9085317" /><path
       id="path7"
       style="isolation:isolate;fill:#ffffff;fill-opacity:1;stroke:#323232;stroke-width:0.808618;stroke-linecap:round;stroke-linejoin:miter;stroke-dasharray:none;stroke-opacity:1"
       d="m 165.31938,398.84175 a 13.726372,13.607111 44.997329 0 0 -2.15002,2.82528 l 8.00789,4.65004 a 4.4559645,4.4172485 44.997329 0 1 0.69827,-0.91967 4.4559645,4.4172485 44.997329 0 1 0.91379,-0.69827 l -4.64732,-8.0159 a 13.726372,13.607111 44.997329 0 0 -2.82283,2.15773 z" /><path
       id="path8"
       style="isolation:isolate;fill:#ffffff;fill-opacity:1;stroke:#323232;stroke-width:0.808618;stroke-linecap:round;stroke-linejoin:miter;stroke-dasharray:none;stroke-opacity:1"
       d="m 187.29866,398.85249 a 13.607111,13.726372 44.997329 0 0 -2.82528,-2.15002 l -4.65004,8.00789 a 4.4172485,4.4559645 44.997329 0 1 0.91967,0.69826 4.4172485,4.4559645 44.997329 0 1 0.69827,0.91379 l 8.0159,-4.64731 a 13.607111,13.726372 44.997329 0 0 -2.15773,-2.82283 z" /><path
       id="path9"
       style="isolation:isolate;fill:#ffffff;fill-opacity:1;stroke:#323232;stroke-width:0.808618;stroke-linecap:round;stroke-linejoin:miter;stroke-dasharray:none;stroke-opacity:1"
       d="m 187.28791,420.83177 a 13.726372,13.607111 44.997329 0 0 2.15003,-2.82528 l -8.0079,-4.65004 a 4.4559645,4.4172485 44.997329 0 1 -0.69826,0.91967 4.4559645,4.4172485 44.997329 0 1 -0.91379,0.69827 l 4.64731,8.0159 a 13.726372,13.607111 44.997329 0 0 2.82283,-2.15773 z" /><path
       id="path10"
       style="isolation:isolate;fill:#ffffff;fill-opacity:1;stroke:#323232;stroke-width:0.808618;stroke-linecap:round;stroke-linejoin:miter;stroke-dasharray:none;stroke-opacity:1"
       d="m 165.32259,420.82101 a 13.607111,13.726372 44.997329 0 0 2.82528,2.15002 l 4.65004,-8.00789 a 4.4172485,4.4559645 44.997329 0 1 -0.91967,-0.69827 4.4172485,4.4559645 44.997329 0 1 -0.69827,-0.91379 l -8.0159,4.64732 a 13.607111,13.726372 44.997329 0 0 2.15773,2.82283 z" /><ellipse
       cx="-165.12299"
       cy="-414.4639"
       fill="#e23b2e"
       id="circle3-6-8-9"
       style="display:inline;isolation:isolate;fill:#a3a3a3;fill-opacity:1;stroke:none;stroke-width:0.808621;stroke-dasharray:none;stroke-opacity:1"
       rx="3.6598048"
       ry="3.6598053"
       transform="matrix(0.70710678,-0.70710678,-0.70710678,-0.70710678,0,0)" /><ellipse
       cx="-165.12299"
       cy="-414.4639"
       fill="#e23b2e"
       id="circle3-6-8-9-6"
       style="display:inline;isolation:isolate;fill:#ffffff;fill-opacity:1;stroke:none;stroke-width:0.808621;stroke-dasharray:none;stroke-opacity:1"
       rx="1.5095952"
       ry="1.5095954"
       transform="matrix(0.70710678,-0.70710678,-0.70710678,-0.70710678,0,0)" /></g></svg>
