<?xml version="1.0" encoding="UTF-8" standalone="no"?>
<svg
   width="128"
   height="128"
   version="1.1"
   id="svg17"
   sodipodi:docname="loot-weapon-hk416-modified.svg"
   xml:space="preserve"
   inkscape:version="1.4.3 (0d15f75, 2025-12-25)"
   xmlns:inkscape="http://www.inkscape.org/namespaces/inkscape"
   xmlns:sodipodi="http://sodipodi.sourceforge.net/DTD/sodipodi-0.dtd"
   xmlns="http://www.w3.org/2000/svg"
   xmlns:svg="http://www.w3.org/2000/svg"><defs
     id="defs17" /><sodipodi:namedview
     id="namedview17"
     pagecolor="#ffffff"
     bordercolor="#999999"
     borderopacity="1"
     inkscape:showpageshadow="0"
     inkscape:pageopacity="0"
     inkscape:pagecheckerboard="0"
     inkscape:deskcolor="#d1d1d1"
     inkscape:zoom="1.6160023"
     inkscape:cx="99.937977"
     inkscape:cy="51.670719"
     inkscape:window-width="1470"
     inkscape:window-height="895"
     inkscape:window-x="22"
     inkscape:window-y="33"
     inkscape:window-maximized="0"
     inkscape:current-layer="svg17" /><!-- M203 underbarrel grenade launcher (modified M416) --><path
     style="fill:#323232;fill-opacity:1;stroke:none;stroke-width:0.904035px;stroke-linecap:butt;stroke-linejoin:miter;stroke-opacity:1"
     d="m 74.639448,35.087511 -9.440322,-15.454158 0.849971,-0.396347 3.625437,5.571042 7.692124,10.069682 z"
     id="path21"
     sodipodi:nodetypes="cccccc" /><path
     d="m 39.943626,79.543467 c 1.369617,-0.338109 2.614472,0.420377 2.614472,0.420377 l 5.134896,-5.117759 1.430186,-1.676081 3.711973,-3.674901 c 0,0 1.045965,-0.833511 2.579211,-0.402296 1.492557,0.419472 2.239289,3.206612 2.47344,3.413636 0,0 0.389635,0.175382 0.745824,0.166342 0.465578,-0.01175 0.871489,-0.633728 0.871489,-0.633728 l 8.280967,-9.388402 c 0.385128,-0.476408 -1.157169,-0.530659 -1.157169,-0.530659 l -5.285893,-5.008362 c -0.516213,-0.544211 -0.417667,-1.394012 -0.417667,-1.394012 l 0.896777,-0.866093 1.386788,-0.727748 27.363469,-27.353245 1.219547,-1.941876 -7.093006,-7.084052 -2.342356,0.485466 -42.740051,42.905491 -0.719009,0.713889 -1.251183,-0.894994 -3.889147,3.93888 0.964608,0.964614 -0.869685,1.997917 -2.685013,2.601785 -0.942899,1.595621 1.431317,1.438988 -0.817241,1.318083 6.446699,6.464726 c 0,0 1.180668,-1.337068 2.658759,-1.732131 z m 17.30684,12.163789 c 0,0 0.450217,-0.101252 0.650909,0.08317 0,0 0.323645,0.628313 0.320027,0.893195 -0.0036,0.341725 -0.343533,0.924828 -0.343533,0.924828 l -5.777712,5.807501 -0.888671,0.254929 c 0,0 -4.333936,-5.49834 -5.442286,-11.088891 -0.406812,-2.052159 -0.448395,-3.576361 -0.458342,-3.646876 0,0 0.06509,-0.995342 -0.0443,-1.335259 -0.148255,-0.461962 -0.546034,-1.347012 -0.546034,-1.347012 l 5.46277,-5.452541 c 0,0 0.422179,0.553261 0.6536,0.765727 0.2414,0.219662 0.913979,0.123853 0.913979,0.123853 0,0 1.258419,-0.05876 1.582065,0.140125 0.392352,0.240473 0.09944,1.036919 0.09944,1.036919 l -1.68421,1.683322 1.47719,3.021284 c 0.02891,0.151896 0.03526,0.422184 1.591104,0.378791 0.31008,-0.009 -0.774764,1.128226 -0.774764,1.128226 z"
     fill="#ffffff"
     stroke="#323232"
     stroke-width="2.26009"
     id="path1-9" /><path
     style="fill:#323232;fill-opacity:1;stroke:none;stroke-width:0.904035px;stroke-linecap:butt;stroke-linejoin:miter;stroke-opacity:1"
     d="m 94.545029,18.560427 1.783172,-1.783173 -5.57027,-5.570264 -0.94403,0.944029 c 0,0 -0.297277,1.381003 0.594393,2.27268 z"
     id="path29"
     sodipodi:nodetypes="ccccsc" /><path
     d="m 94.918887,12.728968 1.576637,1.575733 -3.446147,3.465192 -0.149245,-0.151796 -0.913084,0.927531 -1.310864,-1.325315 0.905049,-0.901215 -0.141939,-0.142828 z"
     fill="#ffffff"
     stroke="#323232"
     stroke-width="1.54138"
     id="path2-4" /><path
     d="m 59.433712,73.114876 -5.143979,5.162012 c 0,0 -0.05697,-0.08588 -0.08682,-0.117507 a 1.7086258,1.7086258 0 0 0 -0.139202,-0.123853 l 5.042442,-5.041169 z m -8.716705,0.307372 c 0,0 1.563987,2.070231 2.511412,1.903897 -0.108513,-0.08859 -1.323501,-0.962797 -1.518779,-1.307243 -0.205212,-0.361605 -0.37065,-1.217726 -0.37065,-1.217726 z"
     fill="#323232"
     fill-opacity="0.314"
     stroke="#323232"
     stroke-width="0.581294"
     id="path3-4" /><path
     d="m 47.345863,64.035655 9.874795,-9.802431 -1.513992,-1.512713 c 0,0 -0.2423,-0.309171 -0.471011,-0.30918 -0.212448,0 -0.465578,0.271211 -0.465578,0.271211 l -8.854943,8.852381 c 0,0 -0.275708,0.321863 -0.276628,0.565925 -9.04e-4,0.199792 0.178996,0.379704 0.178996,0.379704 z"
     fill="#ffffff"
     stroke="#323232"
     stroke-width="1.65619"
     id="path4-7" /><path
     d="m 69.154799,65.827452 c 0,0 3.706546,3.001386 5.742427,4.227266 2.399312,1.444648 7.568581,3.649589 7.568581,3.649589 l -3.477815,8.760097 c 0,0 -6.26677,-2.863078 -9.317894,-4.963151 -1.519681,-1.045968 -6.405986,-4.870036 -6.405986,-4.870036 z"
     fill="#ffffff"
     stroke="#323232"
     stroke-width="2.26009"
     id="path5-9" /><path
     d="m 88.11874,16.709424 -0.977271,1.004374 4.533727,4.558152 1.008895,-0.994447 z"
     fill="#ffffff"
     stroke="#323232"
     stroke-width="1.45369"
     id="path6-5" /><rect
     width="1.4573041"
     height="8.4834623"
     x="49.087574"
     y="65.244179"
     ry="0"
     fill="#2d2d2d"
     id="rect6-5"
     transform="rotate(-45)"
     style="stroke-width:0.904035" /><path
     d="m 32.467263,58.628614 2.221212,-0.976349 0.70334,1.855983 -3.03394,3.033941 c -0.782914,-0.849774 -0.81544,-1.873169 0.187133,-2.87483 z"
     fill="#ffffff"
     stroke="#323232"
     stroke-width="1.4347"
     id="path7-6" /><path
     d="m 36.920535,75.241166 5.620418,-5.550747 c 0.03887,-0.115707 1.218633,-2.335121 0.625589,-2.922744 -0.600575,-0.595461 -2.99597,0.463779 -3.073715,0.541526 l -5.534267,5.526591 0.444803,0.460144 -1.063136,1.036033 c 0,0 -0.788316,0.07955 -0.678928,0.301948 0.41043,0.83804 1.096595,1.485338 1.862287,1.894893 0.246795,0.13198 0.339914,-0.72142 0.339914,-0.72142 l 1.028756,-1.008939 z"
     fill="#323232"
     id="path8-1"
     style="stroke-width:0.904035" /><path
     d="m 83.30837,22.842405 c 0.293581,0.285911 0.261261,0.66537 0.180805,0.744925 l -3.74451,3.744512 c -0.07955,0.07955 -0.504451,0.0904 -0.75939,-0.165438 -0.255841,-0.254947 -0.244091,-0.679843 -0.165438,-0.759389 l 3.729144,-3.730048 c 0.0615,-0.06057 0.437552,-0.149166 0.759389,0.165438 z m 0.646383,5.827409 c 0.323946,0.318826 0.239572,0.789222 0.195271,0.83352 l -1.764672,1.764676 c -0.04494,0.04367 -0.546942,0.08679 -0.831715,-0.19708 -0.282957,-0.283867 -0.240472,-0.78651 -0.19708,-0.831721 l 1.756541,-1.755626 c 0.03433,-0.03435 0.485465,-0.165439 0.841655,0.186231 z m -7.02164,0.546941 c 0.293581,0.28591 0.261274,0.665369 0.180811,0.744924 l -3.744516,3.744513 c -0.07956,0.07955 -0.504445,0.0904 -0.759384,-0.165439 -0.25584,-0.254938 -0.24409,-0.679834 -0.165444,-0.759389 l 3.72915,-3.729144 c 0.06053,-0.06147 0.436645,-0.150078 0.759383,0.164535 z m -6.392447,6.370706 c 0.293581,0.28591 0.26036,0.665378 0.180806,0.744934 l -3.744511,3.744512 c -0.07955,0.07955 -0.504451,0.0904 -0.75939,-0.165439 -0.255846,-0.254938 -0.244992,-0.679834 -0.165437,-0.759389 l 3.729142,-3.729143 c 0.0606,-0.06148 0.436646,-0.15007 0.75939,0.164525 z m -5.868089,6.87881 -2.119962,2.120865 c -0.05037,0.04909 -0.508976,0.05605 -0.787414,-0.223296 -0.278444,-0.278443 -0.271208,-0.737693 -0.223296,-0.78652 l 2.110922,-2.110921 c 0.03797,-0.03887 0.4475,-0.133788 0.797808,0.211553 0.318928,0.312543 0.270761,0.739501 0.221942,0.788319 z m 15.53493,-10.024842 c 0.292679,0.285006 0.260366,0.664456 0.180811,0.744011 l -3.745411,3.744522 c -0.07956,0.07955 -0.504458,0.0904 -0.75939,-0.165439 -0.255847,-0.254938 -0.244098,-0.679834 -0.165438,-0.759389 l 3.729143,-3.729144 c 0.06149,-0.06147 0.437554,-0.150069 0.759384,0.164535 z m -6.392441,6.369811 c 0.293122,0.285449 0.260354,0.665369 0.180799,0.744915 l -3.745418,3.745426 c -0.07955,0.07865 -0.504444,0.0904 -0.759383,-0.166343 -0.255841,-0.254947 -0.244091,-0.679843 -0.165437,-0.759389 l 3.729142,-3.729143 c 0.06149,-0.06148 0.437553,-0.15007 0.759389,0.164534 z m -6.090484,6.090482 c 0.318512,0.313393 0.26036,0.75034 0.210633,0.799167 l -2.098259,2.09916 c -0.04974,0.04882 -0.518917,0.0669 -0.798262,-0.212439 -0.278445,-0.278443 -0.261268,-0.748541 -0.211547,-0.798263 l 2.088325,-2.088321 c 0.03797,-0.03797 0.458341,-0.144654 0.80911,0.200696 z"
     fill="#ffffff"
     stroke="#323232"
     id="path9-5"
     sodipodi:nodetypes="ccscccccscccccccscccccsscscccccccccsccccssscscccscccccsssc"
     style="stroke-width:0.904035" /><g
     fill="#fefefe"
     stroke="#323232"
     id="g11-9"
     transform="matrix(0.90403479,0,0,0.90403479,-8.9122165,6.640294)"><path
       d="m 19.346,99.413 c 0,0 -0.87,-0.569 -1.355,-0.17 0,0 -3.381,3.254 -3.796,3.925 0,0 1.446,5.209 7.488,10.857 4.245,3.968 10.835,7.47 10.835,7.47 l 6.24,-6.114 0.024,-16.015 6.775,-6.7 c 0,0 -1.585,-2.52 -1.652,-3.944 -0.037,-0.782 0.29,-1.766 0.29,-1.766 l 3.19,-3.07 -5.715,-5.728 -1.623,0.558 z"
       stroke-width="2.5"
       stroke-linejoin="round"
       id="path10-1" /><path
       d="m 32.973,100.285 c 0.547,0.533 0.525,1.202 0.391,1.335 l -6.271,6.272 c -0.134,0.132 -0.884,0.112 -1.362,-0.366 -0.475,-0.475 -0.497,-1.226 -0.364,-1.36 l 6.245,-6.246 c 0.103,-0.102 0.76,-0.223 1.361,0.365 z"
       stroke-width="1.5"
       id="path11-3" /></g><rect
     width="33.24136"
     height="2.1615472"
     x="-67.984016"
     y="80.851425"
     ry="0"
     fill="#323232"
     id="rect11-8"
     transform="rotate(-45)"
     style="stroke-width:0.904035" /><path
     d="m 4.8914871,99.35087 c 0,0 3.41996,5.6023 6.7305349,8.92554 3.48325,3.4959 9.218449,6.68533 9.218449,6.68533"
     fill="none"
     stroke="#323232"
     stroke-width="1.80807"
     id="path12-8" /><g
     id="g29"
     transform="matrix(0.63924913,-0.63924913,0.63924913,0.63924913,-179.13048,4.66869)"><rect
       style="opacity:1;fill:#323232;fill-opacity:1;fill-rule:evenodd;stroke:#323232;stroke-width:0;stroke-linejoin:round;stroke-miterlimit:2;stroke-dasharray:none;stroke-opacity:1"
       id="rect26"
       width="5.4729919"
       height="4.3105001"
       x="196.43257"
       y="263.54871"
       ry="0.5801506"
       rx="0" /><path
       style="opacity:1;fill:#ffffff;fill-opacity:1;stroke:#323232;stroke-width:2.5;stroke-linecap:butt;stroke-linejoin:miter;stroke-dasharray:none;stroke-opacity:1"
       d="m 150.98989,231.89942 h 51.20661 l 8.97276,1.54703 v 12.77075 h -30.47644 v 4.38021 c -1.46088,-0.68122 -4.46526,-1.02752 -6.66671,-0.98452 h -4.35587 l -4.37033,16.35981 c -0.34635,1.2965 -1.1969,1.17072 -1.81777,1.16027 l -4.6024,-0.0774 c -2.00031,-0.0336 -2.64632,-0.35991 -2.16585,-2.08849 l 3.36478,-12.10548 c 0.29964,-1.078 0.40141,-2.72321 -0.46411,-3.55817 l -4.15226,-4.00562 0.1547,-8.44795 h -3.69889 c -0.57654,0 -0.92822,-0.40996 -0.92822,-0.92821 z"
       id="path17"
       sodipodi:nodetypes="ccccccccssssssccssc" /><path
       style="opacity:1;fill:#323232;fill-opacity:1;stroke:none;stroke-width:1px;stroke-linecap:butt;stroke-linejoin:miter;stroke-opacity:1"
       d="m 170.32768,243.44194 20.42081,0.46411 6.42794,-1.23762 c 2.62298,-0.50503 2.80125,-3.75101 0.38671,-4.77702 -1.9417,-0.82508 -3.97928,-0.77351 -6.8147,-0.77351 h -20.42076 c -0.54144,0 -0.69616,0.27654 -0.69616,0.69616 v 4.77702 c 0,0.70587 0.33995,0.84276 0.69616,0.85086 z"
       id="path20"
       sodipodi:nodetypes="scsscssss" /><rect
       style="fill:#323232;fill-opacity:1;fill-rule:evenodd;stroke:none;stroke-width:6;stroke-linejoin:round;stroke-miterlimit:2"
       id="rect22"
       width="1.7017365"
       height="6.2693367"
       x="166.24417"
       y="237.15752"
       ry="0.58013076"
       rx="0" /><rect
       style="opacity:1;fill:#323232;fill-opacity:1;fill-rule:evenodd;stroke:none;stroke-width:6;stroke-linejoin:round;stroke-miterlimit:2"
       id="rect23"
       width="2.8619995"
       height="9.4368744"
       x="210.70515"
       y="235.61229"
       ry="0" /><path
       style="fill:none;stroke:#323232;stroke-width:2.5;stroke-linecap:butt;stroke-linejoin:miter;stroke-dasharray:none;stroke-opacity:1"
       d="m 155.617,236.84986 1.52097,-1.81262 h 4.60376 c 1.50464,0 1.67985,0.69934 1.67985,1.67985 v 7.4812 c 0,1.27305 0.88595,2.01891 1.9834,2.01891 h 15.28784"
       id="path23"
       sodipodi:nodetypes="ccssssc" /><path
       style="opacity:1;fill:#323232;fill-opacity:1;stroke:none;stroke-width:1px;stroke-linecap:butt;stroke-linejoin:miter;stroke-opacity:1"
       d="m 173.87758,249.61288 v 6.15498 c 0.0404,1.0991 0.40661,1.25553 1.258,1.48366 l -6.72757,-1.12814 1.26223,-6.5105 z"
       id="path19"
       sodipodi:nodetypes="cccccc" /><path
       style="opacity:1;fill:#323232;fill-opacity:1;stroke:none;stroke-width:1px;stroke-linecap:butt;stroke-linejoin:miter;stroke-opacity:1"
       d="m 185.03549,247.03224 v 4.61937 h -1.69556 l -1.53148,4.69055 c -0.49205,1.50704 -2.12245,2.78304 -4.10218,2.40661 l -7.76678,-1.47678 -2.40661,-0.98452 0.82043,-0.60165 9.62644,2.18782 c 1.16473,0.26471 3.06296,-0.7521 3.06296,-2.516 v -7.99723 z"
       id="path18"
       sodipodi:nodetypes="cccsscccsscc" /><path
       style="fill:none;stroke:#323232;stroke-width:2.5;stroke-linecap:butt;stroke-linejoin:miter;stroke-dasharray:none;stroke-opacity:1"
       d="M 202.1965,231.89942 V 246.2172"
       id="path24" /><rect
       style="opacity:1;fill:#323232;fill-opacity:1;fill-rule:evenodd;stroke:#323232;stroke-width:0;stroke-linejoin:round;stroke-miterlimit:2;stroke-dasharray:none;stroke-opacity:1"
       id="rect24"
       width="4.0648665"
       height="8.0022793"
       x="206.64029"
       y="236.32959" /><rect
       style="opacity:1;fill:#323232;fill-opacity:1;fill-rule:evenodd;stroke:#323232;stroke-width:0;stroke-linejoin:round;stroke-miterlimit:2;stroke-dasharray:none;stroke-opacity:1"
       id="rect25"
       width="24.831842"
       height="3.1176605"
       x="185.52776"
       y="246.40405" /><rect
       style="opacity:1;fill:#323232;fill-opacity:1;fill-rule:evenodd;stroke:#323232;stroke-width:2;stroke-linejoin:round;stroke-miterlimit:2;stroke-dasharray:none;stroke-opacity:1"
       id="rect29"
       width="6.672873"
       height="6.1259174"
       x="197.77959"
       y="246.40405"
       ry="0.5801506" /><path
       style="fill:none;stroke:#323232;stroke-width:1.5;stroke-linecap:butt;stroke-linejoin:miter;stroke-dasharray:none;stroke-opacity:1"
       d="m 185.52776,248.97476 h 24.88654 c 0.75648,0 0.90132,0.41676 0.92982,0.92982 l 0.21878,3.93809"
       id="path25"
       sodipodi:nodetypes="cssc" /><path
       style="fill:#323232;fill-opacity:1;stroke:#323232;stroke-width:2;stroke-linecap:butt;stroke-linejoin:miter;stroke-dasharray:none;stroke-opacity:1"
       d="m 198.21441,260.67413 v 7.28269 l 0.74304,0.84807 2.78483,0.72879 0.57024,-8.82087 -3.88003,-0.36215 z"
       id="path27"
       sodipodi:nodetypes="ccccccc" /><path
       style="fill:#ffffff;fill-opacity:1;stroke:#323232;stroke-width:2;stroke-linecap:butt;stroke-linejoin:miter;stroke-dasharray:none;stroke-opacity:1"
       d="m 197.77959,252.52997 v 9.62644 h 2.29722 c 0.45121,0 0.6837,0.164 0.6837,0.68369 v 6.80961 l 3.22442,0.67346 c 0.41278,0.0862 0.46753,0.0275 0.46753,-0.50937 v -17.28383 c 0,-2.17603 -1.65267,-3.34002 -3.33644,-3.34002 -1.76581,0 -3.33643,1.16612 -3.33643,3.34002 z"
       id="path26"
       sodipodi:nodetypes="scsscsssss" /><rect
       style="fill:#7e7e7e;fill-opacity:1;fill-rule:evenodd;stroke:none;stroke-width:1.5;stroke-linejoin:round;stroke-miterlimit:2;stroke-dasharray:none;stroke-opacity:1"
       id="rect27"
       width="2.3792572"
       height="4.4030175"
       x="199.92639"
       y="251.32181"
       ry="1.1896311" /><circle
       style="opacity:1;fill:#ffffff;fill-opacity:1;fill-rule:evenodd;stroke:none;stroke-width:1.5;stroke-linejoin:round;stroke-miterlimit:2;stroke-dasharray:none;stroke-opacity:1"
       id="path28"
       cx="201.11603"
       cy="252.62083"
       r="0.69736993" /></g><path
     style="fill:#323232;fill-opacity:1;stroke:none;stroke-width:0.904035px;stroke-linecap:butt;stroke-linejoin:miter;stroke-opacity:1"
     d="m 82.325,35.360666 2.167777,2.167776 1.957981,-1.958004 0.162134,-4.841911 -4.38626,3.904418"
     id="path30"
     sodipodi:nodetypes="ccccc" /><path
     style="fill:#323232;fill-opacity:1;stroke:none;stroke-width:0.904035px;stroke-linecap:butt;stroke-linejoin:miter;stroke-opacity:1"
     d="m 92.63834,21.78181 3.741167,3.741167 -2.16779,2.167767 -4.841911,0.16213 2.540813,-6.169432"
     id="path30-9"
     sodipodi:nodetypes="ccccc" /></svg>
